<svg class="diagram-root" style="background: #f5f6f6" xmlns="http://www.w3.org/2000/svg" xmlns:xlink="http://www.w3.org/1999/xlink"><style>.diagram-root { font-family: "Helvetica Neue", sans-serif; font-size: 12px; } .t { overflow: visible; } .t-bg { y: 40; fill: #fff;   } .th { fill: #005aa0;   } .tht { fill: #fff; font-size: 14px;  } .tf { fill: #323c46; overflow: visible; } .tf.pk { fill: #005aa0; font-weight: bold; } .tf.fk { font-weight: bold; } .ty { fill: #adb1b5; font-weight: normal; text-anchor: end; } .r { fill: transparent; stroke: #c3c3c3; stroke-width: 1; } .l { stroke: 1; } .i { fill: #c2c7ce; stroke: #c2c7ce; } .i.ix { fill: #afb3b6; stroke: #000; } .fa { fill: transparent; overflow: visible; } .fa .bg.hover { fill: #f7f7f7; } .c { cy: 12; r: 4; stroke: #d2d2dc; fill: #d2d2dc; } .hr { fill: transparent; stroke: #323c46; stroke-opacity: 0.035; stroke-width: 13; } .dc { stroke: #fa5a3c; fill: #fa5a3c; } .x { stroke: white; stroke-width: 1; } .hl .th { fill: #1b9bff; } .hl .tht {  } .fhl .bg { fill: #e7f4ff; } .fhls .bg {  } .r.hl { stroke: #1b9bff; } .dim { opacity: 0.25; }</style><g class="drawing-wrapper" transform="translate(-42, 13) scale(1,1)"><g class="rs"><path d="M 734 74 m -1, 0 a 1,1 0 1,0 2,0 a 1,1 0 1,0 -2,0 M 734 74 m -0.5, 0 a 0.5,0.5 0 1,0 1,0 a 0.5,0.5 0 1,0 -1,0  M734 74 L734 74 746 74 M 734 80 m -1, 0 a 1,1 0 1,0 2,0 a 1,1 0 1,0 -2,0 M 734 80 m -0.5, 0 a 0.5,0.5 0 1,0 1,0 a 0.5,0.5 0 1,0 -1,0  M734 80 L734 80 741 74 734 68 M 734 68 m -1, 0 a 1,1 0 1,0 2,0 a 1,1 0 1,0 -2,0 M 734 68 m -0.5, 0 a 0.5,0.5 0 1,0 1,0 a 0.5,0.5 0 1,0 -1,0  M746 74 C 796 74, 925.6 386, 530 386 M 518 386 m -1, 0 a 1,1 0 1,0 2,0 a 1,1 0 1,0 -2,0 M 518 386 m -0.5, 0 a 0.5,0.5 0 1,0 1,0 a 0.5,0.5 0 1,0 -1,0  M518 386 L518 386 530 386 M524 392 L524 392 524 380" id="h1736270986" class="r"></path><path d="M 587 99 m -1, 0 a 1,1 0 1,0 2,0 a 1,1 0 1,0 -2,0 M 587 99 m -0.5, 0 a 0.5,0.5 0 1,0 1,0 a 0.5,0.5 0 1,0 -1,0  M587 99 L587 99 575 99 M 587 105 m -1, 0 a 1,1 0 1,0 2,0 a 1,1 0 1,0 -2,0 M 587 105 m -0.5, 0 a 0.5,0.5 0 1,0 1,0 a 0.5,0.5 0 1,0 -1,0  M587 105 L587 105 580 99 587 93 M 587 93 m -1, 0 a 1,1 0 1,0 2,0 a 1,1 0 1,0 -2,0 M 587 93 m -0.5, 0 a 0.5,0.5 0 1,0 1,0 a 0.5,0.5 0 1,0 -1,0  M575 99 Q 492 99, 409 86.5 T 243 74 M 231 74 m -1, 0 a 1,1 0 1,0 2,0 a 1,1 0 1,0 -2,0 M 231 74 m -0.5, 0 a 0.5,0.5 0 1,0 1,0 a 0.5,0.5 0 1,0 -1,0  M231 74 L231 74 243 74 M237 80 L237 80 237 68" id="h3233325729" class="r"></path><path d="M 359 200 m -1, 0 a 1,1 0 1,0 2,0 a 1,1 0 1,0 -2,0 M 359 200 m -0.5, 0 a 0.5,0.5 0 1,0 1,0 a 0.5,0.5 0 1,0 -1,0  M359 200 L359 200 347 200 M 359 206 m -1, 0 a 1,1 0 1,0 2,0 a 1,1 0 1,0 -2,0 M 359 206 m -0.5, 0 a 0.5,0.5 0 1,0 1,0 a 0.5,0.5 0 1,0 -1,0  M359 206 L359 206 352 200 359 194 M 359 194 m -1, 0 a 1,1 0 1,0 2,0 a 1,1 0 1,0 -2,0 M 359 194 m -0.5, 0 a 0.5,0.5 0 1,0 1,0 a 0.5,0.5 0 1,0 -1,0  M347 200 Q 321 200, 295 137 T 243 74 M 231 74 m -1, 0 a 1,1 0 1,0 2,0 a 1,1 0 1,0 -2,0 M 231 74 m -0.5, 0 a 0.5,0.5 0 1,0 1,0 a 0.5,0.5 0 1,0 -1,0  M231 74 L231 74 243 74 M237 80 L237 80 237 68" id="h639454232" class="r"></path><path d="M 359 225 m -1, 0 a 1,1 0 1,0 2,0 a 1,1 0 1,0 -2,0 M 359 225 m -0.5, 0 a 0.5,0.5 0 1,0 1,0 a 0.5,0.5 0 1,0 -1,0  M359 225 L359 225 347 225 M 359 231 m -1, 0 a 1,1 0 1,0 2,0 a 1,1 0 1,0 -2,0 M 359 231 m -0.5, 0 a 0.5,0.5 0 1,0 1,0 a 0.5,0.5 0 1,0 -1,0  M359 231 L359 231 352 225 359 219 M 359 219 m -1, 0 a 1,1 0 1,0 2,0 a 1,1 0 1,0 -2,0 M 359 219 m -0.5, 0 a 0.5,0.5 0 1,0 1,0 a 0.5,0.5 0 1,0 -1,0  M347 225 C 293.8 225, 295 386, 345 386 M 357 386 m -1, 0 a 1,1 0 1,0 2,0 a 1,1 0 1,0 -2,0 M 357 386 m -0.5, 0 a 0.5,0.5 0 1,0 1,0 a 0.5,0.5 0 1,0 -1,0  M357 386 L357 386 345 386 M351 392 L351 392 351 380" id="h1499507187" class="r"></path><path d="M 235 472 m -1, 0 a 1,1 0 1,0 2,0 a 1,1 0 1,0 -2,0 M 235 472 m -0.5, 0 a 0.5,0.5 0 1,0 1,0 a 0.5,0.5 0 1,0 -1,0  M235 472 L235 472 247 472 M 235 478 m -1, 0 a 1,1 0 1,0 2,0 a 1,1 0 1,0 -2,0 M 235 478 m -0.5, 0 a 0.5,0.5 0 1,0 1,0 a 0.5,0.5 0 1,0 -1,0  M235 478 L235 478 242 472 235 466 M 235 466 m -1, 0 a 1,1 0 1,0 2,0 a 1,1 0 1,0 -2,0 M 235 466 m -0.5, 0 a 0.5,0.5 0 1,0 1,0 a 0.5,0.5 0 1,0 -1,0  M247 472 Q 271.5 472, 296 429 T 345 386 M 357 386 m -1, 0 a 1,1 0 1,0 2,0 a 1,1 0 1,0 -2,0 M 357 386 m -0.5, 0 a 0.5,0.5 0 1,0 1,0 a 0.5,0.5 0 1,0 -1,0  M357 386 L357 386 345 386 M351 392 L351 392 351 380" id="h221257298" class="r"></path><path d="M 616 479 m -1, 0 a 1,1 0 1,0 2,0 a 1,1 0 1,0 -2,0 M 616 479 m -0.5, 0 a 0.5,0.5 0 1,0 1,0 a 0.5,0.5 0 1,0 -1,0  M616 479 L616 479 604 479 M 616 485 m -1, 0 a 1,1 0 1,0 2,0 a 1,1 0 1,0 -2,0 M 616 485 m -0.5, 0 a 0.5,0.5 0 1,0 1,0 a 0.5,0.5 0 1,0 -1,0  M616 485 L616 485 609 479 616 473 M 616 473 m -1, 0 a 1,1 0 1,0 2,0 a 1,1 0 1,0 -2,0 M 616 473 m -0.5, 0 a 0.5,0.5 0 1,0 1,0 a 0.5,0.5 0 1,0 -1,0  M604 479 Q 585.5 479, 567 432.5 T 530 386 M 518 386 m -1, 0 a 1,1 0 1,0 2,0 a 1,1 0 1,0 -2,0 M 518 386 m -0.5, 0 a 0.5,0.5 0 1,0 1,0 a 0.5,0.5 0 1,0 -1,0  M518 386 L518 386 530 386 M524 392 L524 392 524 380" id="h1168633520" class="r"></path></g><g class="hrs"></g><g class="ts"><svg width="167" height="100" x="64" y="17" id="h3708248841" class="t"><rect height="40" width="167" class="th"></rect><text x="13" y="25" class="tht">Departments</text><rect height="60" width="167" class="t-bg" y="40"></rect><text x="13" y="61" class="tf pk">dept_no<tspan x="154" class="ty">VARCHAR</tspan></text><path d="M7,14A2,2 0 0,1 5,12A2,2 0 0,1 7,10A2,2 0 0,1 9,12A2,2 0 0,1 7,14M12.65,10C11.83,7.67 9.61,6 7, 6A6, 6 0 0, 0 1, 12A6, 6 0 0, 0 7, 18C9.61, 18 11.83, 16.33 12.65, 14H17V18H21V14H23V10H12.65Z" class="i pk" transform="translate(78, 48) scale(0.65)"></path><text x="13" y="86" class="tf">dept_name<tspan x="154" class="ty">VARCHAR</tspan></text></svg><svg width="147" height="150" x="587" y="17" id="h4086156755" class="t"><rect height="40" width="147" class="th"></rect><text x="13" y="25" class="tht">Dept_emp</text><rect height="110" width="147" class="t-bg" y="40"></rect><text x="13" y="61" class="tf fk">emp_no<tspan x="134" class="ty">INT</tspan></text><text x="13" y="86" class="tf fk">dept_no<tspan x="134" class="ty">VARCHAR</tspan></text><text x="13" y="111" class="tf">from_date<tspan x="134" class="ty">DATE</tspan></text><text x="13" y="136" class="tf">to_date<tspan x="134" class="ty">DATE</tspan></text></svg><svg width="147" height="150" x="359" y="143" id="h2403958395" class="t"><rect height="40" width="147" class="th"></rect><text x="13" y="25" class="tht">Dept_manager</text><rect height="110" width="147" class="t-bg" y="40"></rect><text x="13" y="61" class="tf fk">dept_no<tspan x="134" class="ty">VARCHAR</tspan></text><text x="13" y="86" class="tf fk">emp_no<tspan x="134" class="ty">INT</tspan></text><text x="13" y="111" class="tf">from_date<tspan x="134" class="ty">DATE</tspan></text><text x="13" y="136" class="tf">to_date<tspan x="134" class="ty">DATE</tspan></text></svg><svg width="161" height="200" x="357" y="329" id="h3299212598" class="t"><rect height="40" width="161" class="th"></rect><text x="13" y="25" class="tht">Employees</text><rect height="160" width="161" class="t-bg" y="40"></rect><text x="13" y="61" class="tf pk">emp_no<tspan x="148" class="ty">INT</tspan></text><path d="M7,14A2,2 0 0,1 5,12A2,2 0 0,1 7,10A2,2 0 0,1 9,12A2,2 0 0,1 7,14M12.65,10C11.83,7.67 9.61,6 7, 6A6, 6 0 0, 0 1, 12A6, 6 0 0, 0 7, 18C9.61, 18 11.83, 16.33 12.65, 14H17V18H21V14H23V10H12.65Z" class="i pk" transform="translate(109, 48) scale(0.65)"></path><text x="13" y="86" class="tf">birth_date<tspan x="148" class="ty">DATE</tspan></text><text x="13" y="111" class="tf">first_name<tspan x="148" class="ty">VARCHAR</tspan></text><text x="13" y="136" class="tf">last_name<tspan x="148" class="ty">VARCHAR</tspan></text><text x="13" y="161" class="tf">gender<tspan x="148" class="ty">VARCHAR</tspan></text><text x="13" y="186" class="tf">hire_date<tspan x="148" class="ty">DATE</tspan></text></svg><svg width="132" height="150" x="103" y="415" id="h3858243705" class="t"><rect height="40" width="132" class="th"></rect><text x="13" y="25" class="tht">Salaries</text><rect height="110" width="132" class="t-bg" y="40"></rect><text x="13" y="61" class="tf fk">emp_no<tspan x="119" class="ty">INT</tspan></text><text x="13" y="86" class="tf">salary<tspan x="119" class="ty">DECIMAL</tspan></text><text x="13" y="111" class="tf">from_date<tspan x="119" class="ty">DATE</tspan></text><text x="13" y="136" class="tf">to_date<tspan x="119" class="ty">DATE</tspan></text></svg><svg width="132" height="150" x="616" y="422" id="h3517680912" class="t"><rect height="40" width="132" class="th"></rect><text x="13" y="25" class="tht">Titles</text><rect height="110" width="132" class="t-bg" y="40"></rect><text x="13" y="61" class="tf fk">emp_no<tspan x="119" class="ty">INT</tspan></text><text x="13" y="86" class="tf">title<tspan x="119" class="ty">VARCHAR</tspan></text><text x="13" y="111" class="tf">from_date<tspan x="119" class="ty">DATE</tspan></text><text x="13" y="136" class="tf">to_date<tspan x="119" class="ty">DATE</tspan></text></svg></g></g><text class="qdbd-link" x="10" y="20">www.quickdatabasediagrams.com</text></svg>